<svg width="32" height="32" viewBox="0 0 32 32" fill="none" xmlns="http://www.w3.org/2000/svg">
<g clip-path="url(#clip0_4816_2580)">
<path opacity="0.4" d="M11.9409 27V19.6666C11.9409 18.5095 12.879 17.5714 14.0362 17.5714H17.9638C19.121 17.5714 20.0591 18.5095 20.0591 19.6666V27C20.0591 28.1572 19.121 29.0952 17.9638 29.0952H14.0362C12.879 29.0952 11.9409 28.1572 11.9409 27Z" fill="#3D88F9"/>
<path fill-rule="evenodd" clip-rule="evenodd" d="M5.72307 12.8287C6.66247 12.4703 7.57933 12.7202 8.21877 13.2849C8.83415 13.8285 9.19075 14.6499 9.19075 15.51V21.7958C9.19075 22.6559 8.83479 23.4771 8.22686 24.0271C7.59774 24.5961 6.68873 24.8706 5.74067 24.54C4.76781 24.2008 3.782 23.6024 3.04156 22.6153C2.29589 21.6213 1.85742 20.3104 1.85742 18.6529C1.85742 17.0193 2.32453 15.7292 3.07773 14.7502C3.82196 13.7829 4.79639 13.1822 5.72307 12.8287ZM26.2774 12.8287C25.3381 12.4703 24.4212 12.7202 23.7818 13.2849C23.1664 13.8285 22.8098 14.6499 22.8098 15.51V21.7958C22.8098 22.6559 23.1658 23.4771 23.7736 24.0271C24.4028 24.5961 25.3117 24.8706 26.2598 24.54C27.2328 24.2008 28.2187 23.6024 28.9589 22.6153C29.7046 21.6213 30.1431 20.3104 30.1431 18.6529C30.1431 17.0193 29.6761 15.7292 28.9229 14.7502C28.1786 13.7829 27.2041 13.1822 26.2774 12.8287Z" fill="#3D88F9"/>
<path opacity="0.4" fill-rule="evenodd" clip-rule="evenodd" d="M6.89823 12.68C7.05066 9.55693 8.17903 7.61848 9.64729 6.41676C11.282 5.0788 13.5569 4.47623 16 4.47623C18.4432 4.47623 20.7181 5.0788 22.3528 6.41676C23.8212 7.61848 24.9494 9.55695 25.1018 12.6801C25.4762 12.6332 25.8747 12.6751 26.2774 12.8287C26.9493 13.085 27.6462 13.4712 28.2622 14.0328V13.4149C28.2622 9.08207 26.7736 5.97363 24.3433 3.98465C21.9678 2.04032 18.8973 1.33337 16 1.33337C13.1028 1.33337 10.0323 2.04032 7.6567 3.98465C5.22656 5.97363 3.73779 9.08205 3.73779 13.4149V14.0332C4.354 13.4714 5.05109 13.0851 5.72305 12.8287C6.12559 12.6751 6.524 12.6333 6.89823 12.68Z" fill="#3D88F9"/>
</g>
<defs>
<clipPath id="clip0_4816_2580">
<rect width="29.3333" height="29.3333" fill="white" transform="translate(1.3335 1.33337)"/>
</clipPath>
</defs>
</svg>
