<svg width="32" height="32" viewBox="0 0 32 32" fill="none" xmlns="http://www.w3.org/2000/svg">
<path fill-rule="evenodd" clip-rule="evenodd" d="M21.3325 1.66663C21.8848 1.66663 22.3325 2.11434 22.3325 2.66663L22.3325 6.66663C22.3325 7.21891 21.8848 7.66663 21.3325 7.66663C20.7802 7.66663 20.3325 7.21891 20.3325 6.66663L20.3325 2.66663C20.3325 2.11434 20.7802 1.66663 21.3325 1.66663Z" fill="#FF627E"/>
<path fill-rule="evenodd" clip-rule="evenodd" d="M10.666 1.66663C11.2183 1.66663 11.666 2.11434 11.666 2.66663L11.666 6.66663C11.666 7.21891 11.2183 7.66663 10.666 7.66663C10.1137 7.66663 9.66602 7.21891 9.66602 6.66663L9.66602 2.66663C9.66602 2.11434 10.1137 1.66663 10.666 1.66663Z" fill="#FF627E"/>
<path opacity="0.4" d="M22.6667 4.66663H9.33333C6.38781 4.66663 4 7.05444 4 9.99996V24C4 26.9455 6.38781 29.3333 9.33333 29.3333H22.6667C25.6122 29.3333 28 26.9455 28 24V9.99996C28 7.05444 25.6122 4.66663 22.6667 4.66663Z" fill="#FF627E"/>
<path fill-rule="evenodd" clip-rule="evenodd" d="M9.6665 12C9.6665 11.4477 10.1142 11 10.6665 11H15.9998C16.5521 11 16.9998 11.4477 16.9998 12C16.9998 12.5523 16.5521 13 15.9998 13H10.6665C10.1142 13 9.6665 12.5523 9.6665 12Z" fill="#FF627E"/>
<path fill-rule="evenodd" clip-rule="evenodd" d="M9.6665 17.3333C9.6665 16.781 10.1142 16.3333 10.6665 16.3333H21.3332C21.8855 16.3333 22.3332 16.781 22.3332 17.3333C22.3332 17.8855 21.8855 18.3333 21.3332 18.3333H10.6665C10.1142 18.3333 9.6665 17.8855 9.6665 17.3333Z" fill="#FF627E"/>
<path fill-rule="evenodd" clip-rule="evenodd" d="M9.6665 22.6666C9.6665 22.1143 10.1142 21.6666 10.6665 21.6666H21.3332C21.8855 21.6666 22.3332 22.1143 22.3332 22.6666C22.3332 23.2189 21.8855 23.6666 21.3332 23.6666H10.6665C10.1142 23.6666 9.6665 23.2189 9.6665 22.6666Z" fill="#FF627E"/>
</svg>
