<svg width="32" height="32" viewBox="0 0 32 32" fill="none" xmlns="http://www.w3.org/2000/svg">
<g clip-path="url(#clip0_4816_1687)">
<path opacity="0.4" fill-rule="evenodd" clip-rule="evenodd" d="M16.0002 3.54858C13.5669 3.54858 11.1894 3.72634 8.90185 3.93428C5.09054 4.2807 1.9173 7.27048 1.46869 11.1041C1.28372 12.6849 1.14307 14.3234 1.14307 16.0001C1.14307 17.6768 1.28372 19.3153 1.46869 20.8961C1.9173 24.7296 5.09054 27.7196 8.90185 28.0659C11.1894 28.2739 13.5669 28.4517 16.0002 28.4517C18.4335 28.4517 20.811 28.2739 23.0985 28.0659C26.9099 27.7196 30.0832 24.7296 30.5316 20.8961C30.7168 19.3153 30.8573 17.6768 30.8573 16.0001C30.8573 14.3234 30.7168 12.6849 30.5316 11.1041C30.0832 7.27048 26.9099 4.2807 23.0985 3.93428C20.811 3.72634 18.4335 3.54858 16.0002 3.54858Z" fill="#FFDC62"/>
<path d="M14.3679 22.0408C17.5658 20.3541 22.0195 17.6999 22.0195 16.0003C22.0195 14.3008 17.5658 11.6466 14.3679 9.95982C12.8943 9.18259 11.1797 10.2719 11.1797 11.9379V20.0628C11.1797 21.7287 12.8943 22.8181 14.3679 22.0408Z" fill="#FFDC62"/>
</g>
<defs>
<clipPath id="clip0_4816_1687">
<rect width="32" height="32" fill="white"/>
</clipPath>
</defs>
</svg>
