<svg width="32" height="32" viewBox="0 0 32 32" fill="none" xmlns="http://www.w3.org/2000/svg">
<path opacity="0.4" d="M15.0889 7.2326C12.2573 5.24843 8.28344 4.34926 5.32561 4.01503C3.86173 3.84961 2.6665 5.07203 2.6665 6.58024V21.5999C2.6665 23.1081 3.86173 24.331 5.32561 24.4964C8.28344 24.8307 12.2573 25.7298 15.0889 27.714C15.361 27.9047 15.6804 28 15.9998 28V7.5186C15.6804 7.5186 15.361 7.42327 15.0889 7.2326Z" fill="#9A8FFA"/>
<path fill-rule="evenodd" clip-rule="evenodd" d="M5.67843 10.853C5.76295 10.3072 6.27391 9.93326 6.81969 10.0178C8.55672 10.2868 10.5129 10.7364 12.3607 11.451C12.8758 11.6502 13.1319 12.2292 12.9327 12.7443C12.7335 13.2594 12.1544 13.5155 11.6393 13.3163C9.96111 12.6674 8.15197 12.248 6.5136 11.9942C5.96782 11.9097 5.5939 11.3987 5.67843 10.853Z" fill="#9A8FFA"/>
<path fill-rule="evenodd" clip-rule="evenodd" d="M5.67843 16.1863C5.76295 15.6406 6.27391 15.2666 6.81969 15.3512C7.69933 15.4874 8.6326 15.6695 9.57794 15.908C10.1134 16.0432 10.438 16.5868 10.3029 17.1223C10.1678 17.6578 9.62419 17.9824 9.08868 17.8473C8.21082 17.6258 7.33926 17.4555 6.5136 17.3276C5.96782 17.2431 5.5939 16.7321 5.67843 16.1863Z" fill="#9A8FFA"/>
<path d="M16.9109 7.2326C19.7425 5.24843 23.7164 4.34926 26.6742 4.01503C28.1381 3.84961 29.3333 5.07203 29.3333 6.58024V21.5999C29.3333 23.1081 28.1381 24.331 26.6742 24.4964C23.7164 24.8307 19.7425 25.7298 16.9109 27.714C16.6388 27.9047 16.3194 28 16 28V7.5186C16.3194 7.5186 16.6388 7.42327 16.9109 7.2326Z" fill="#9A8FFA"/>
</svg>
