<svg width="279" height="16" viewBox="0 0 279 16" fill="none" xmlns="http://www.w3.org/2000/svg">
<line y1="7.5" x2="279" y2="7.5" stroke="#C6C0FC"/>
<rect width="24" height="16" transform="translate(128)" fill="#F4F0FB"/>
<path d="M135.923 12.144C135.371 12.144 134.855 12.044 134.375 11.844C133.895 11.644 133.473 11.35 133.109 10.962C132.745 10.574 132.459 10.096 132.251 9.528C132.043 8.956 131.939 8.302 131.939 7.566C131.939 6.826 132.041 6.174 132.245 5.61C132.453 5.042 132.739 4.566 133.103 4.182C133.467 3.798 133.889 3.508 134.369 3.312C134.849 3.116 135.367 3.018 135.923 3.018C136.475 3.018 136.991 3.116 137.471 3.312C137.955 3.508 138.379 3.798 138.743 4.182C139.107 4.566 139.391 5.042 139.595 5.61C139.799 6.174 139.901 6.826 139.901 7.566C139.901 8.302 139.797 8.956 139.589 9.528C139.385 10.096 139.099 10.574 138.731 10.962C138.367 11.35 137.943 11.644 137.459 11.844C136.979 12.044 136.467 12.144 135.923 12.144ZM135.923 10.65C136.295 10.65 136.639 10.548 136.955 10.344C137.275 10.14 137.531 9.812 137.723 9.36C137.915 8.904 138.011 8.306 138.011 7.566C138.011 6.822 137.913 6.226 137.717 5.778C137.525 5.33 137.271 5.008 136.955 4.812C136.639 4.612 136.295 4.512 135.923 4.512C135.551 4.512 135.205 4.612 134.885 4.812C134.569 5.008 134.315 5.33 134.123 5.778C133.931 6.226 133.835 6.822 133.835 7.566C133.835 8.31 133.931 8.908 134.123 9.36C134.315 9.812 134.569 10.14 134.885 10.344C135.205 10.548 135.551 10.65 135.923 10.65ZM141.632 12V3.15H145.22C146.148 3.15 146.84 3.362 147.296 3.786C147.756 4.206 147.986 4.812 147.986 5.604C147.986 6.06 147.898 6.45 147.722 6.774C147.55 7.094 147.336 7.342 147.08 7.518C146.828 7.694 146.584 7.792 146.348 7.812C146.592 7.828 146.822 7.89 147.038 7.998C147.258 8.102 147.438 8.268 147.578 8.496C147.718 8.724 147.788 9.03 147.788 9.414C147.788 9.698 147.788 9.978 147.788 10.254C147.788 10.53 147.788 10.812 147.788 11.1C147.788 11.296 147.802 11.478 147.83 11.646C147.862 11.81 147.908 11.928 147.968 12H146.102C146.05 11.92 146.008 11.8 145.976 11.64C145.944 11.476 145.928 11.296 145.928 11.1C145.928 10.844 145.928 10.6 145.928 10.368C145.928 10.132 145.928 9.886 145.928 9.63C145.928 9.282 145.838 9.014 145.658 8.826C145.478 8.634 145.19 8.538 144.794 8.538H142.958L143.456 7.944V12H141.632ZM143.456 7.776L142.958 7.098H144.818C145.058 7.098 145.272 7.044 145.46 6.936C145.648 6.828 145.796 6.674 145.904 6.474C146.016 6.274 146.072 6.04 146.072 5.772C146.072 5.396 145.958 5.104 145.73 4.896C145.506 4.688 145.19 4.584 144.782 4.584H142.916L143.456 3.978V7.776Z" fill="#9A8FFA"/>
</svg>
