<svg width="44" height="44" viewBox="0 0 44 44" fill="none" xmlns="http://www.w3.org/2000/svg">
<rect width="44" height="44" rx="9.77778" fill="black"/>
<path fill-rule="evenodd" clip-rule="evenodd" d="M28.6513 21.4598C28.9496 21.7582 28.9496 22.2418 28.6513 22.5401L24.5772 26.6142C24.2789 26.9125 23.7952 26.9125 23.4969 26.6142C23.1986 26.3159 23.1986 25.8322 23.4969 25.5339L26.2669 22.7639L15.8889 22.7639C15.467 22.7639 15.125 22.4219 15.125 22C15.125 21.5781 15.467 21.2361 15.8889 21.2361L26.2669 21.2361L23.4969 18.4661C23.1986 18.1678 23.1986 17.6841 23.4969 17.3858C23.7952 17.0875 24.2789 17.0875 24.5772 17.3858L28.6513 21.4598Z" fill="white"/>
</svg>
