<svg width="18" height="442" viewBox="0 0 18 442" fill="none" xmlns="http://www.w3.org/2000/svg">
<line x1="8.5" y1="-2.91739e-08" x2="8.50003" y2="442" stroke="#C6C0FC"/>
<rect width="18" height="18" transform="translate(0 212)" fill="white"/>
<path d="M4.476 226.144C3.924 226.144 3.408 226.044 2.928 225.844C2.448 225.644 2.026 225.35 1.662 224.962C1.298 224.574 1.012 224.096 0.804 223.528C0.596 222.956 0.492 222.302 0.492 221.566C0.492 220.826 0.594 220.174 0.798 219.61C1.006 219.042 1.292 218.566 1.656 218.182C2.02 217.798 2.442 217.508 2.922 217.312C3.402 217.116 3.92 217.018 4.476 217.018C5.028 217.018 5.544 217.116 6.024 217.312C6.508 217.508 6.932 217.798 7.296 218.182C7.66 218.566 7.944 219.042 8.148 219.61C8.352 220.174 8.454 220.826 8.454 221.566C8.454 222.302 8.35 222.956 8.142 223.528C7.938 224.096 7.652 224.574 7.284 224.962C6.92 225.35 6.496 225.644 6.012 225.844C5.532 226.044 5.02 226.144 4.476 226.144ZM4.476 224.65C4.848 224.65 5.192 224.548 5.508 224.344C5.828 224.14 6.084 223.812 6.276 223.36C6.468 222.904 6.564 222.306 6.564 221.566C6.564 220.822 6.466 220.226 6.27 219.778C6.078 219.33 5.824 219.008 5.508 218.812C5.192 218.612 4.848 218.512 4.476 218.512C4.104 218.512 3.758 218.612 3.438 218.812C3.122 219.008 2.868 219.33 2.676 219.778C2.484 220.226 2.388 220.822 2.388 221.566C2.388 222.31 2.484 222.908 2.676 223.36C2.868 223.812 3.122 224.14 3.438 224.344C3.758 224.548 4.104 224.65 4.476 224.65ZM10.1851 226V217.15H13.7731C14.7011 217.15 15.3931 217.362 15.8491 217.786C16.3091 218.206 16.5391 218.812 16.5391 219.604C16.5391 220.06 16.4511 220.45 16.2751 220.774C16.1031 221.094 15.8891 221.342 15.6331 221.518C15.3811 221.694 15.1371 221.792 14.9011 221.812C15.1451 221.828 15.3751 221.89 15.5911 221.998C15.8111 222.102 15.9911 222.268 16.1311 222.496C16.2711 222.724 16.3411 223.03 16.3411 223.414C16.3411 223.698 16.3411 223.978 16.3411 224.254C16.3411 224.53 16.3411 224.812 16.3411 225.1C16.3411 225.296 16.3551 225.478 16.3831 225.646C16.4151 225.81 16.4611 225.928 16.5211 226H14.6551C14.6031 225.92 14.5611 225.8 14.5291 225.64C14.4971 225.476 14.4811 225.296 14.4811 225.1C14.4811 224.844 14.4811 224.6 14.4811 224.368C14.4811 224.132 14.4811 223.886 14.4811 223.63C14.4811 223.282 14.3911 223.014 14.2111 222.826C14.0311 222.634 13.7431 222.538 13.3471 222.538H11.5111L12.0091 221.944V226H10.1851ZM12.0091 221.776L11.5111 221.098H13.3711C13.6111 221.098 13.8251 221.044 14.0131 220.936C14.2011 220.828 14.3491 220.674 14.4571 220.474C14.5691 220.274 14.6251 220.04 14.6251 219.772C14.6251 219.396 14.5111 219.104 14.2831 218.896C14.0591 218.688 13.7431 218.584 13.3351 218.584H11.4691L12.0091 217.978V221.776Z" fill="#9A8FFA"/>
</svg>
