<svg width="44" height="44" viewBox="0 0 44 44" fill="none" xmlns="http://www.w3.org/2000/svg">
<rect width="44" height="44" rx="9.77778" transform="matrix(-1 0 0 1 44 0)" fill="black"/>
<path fill-rule="evenodd" clip-rule="evenodd" d="M15.3487 21.4598C15.0504 21.7582 15.0504 22.2418 15.3487 22.5401L19.4228 26.6142C19.7211 26.9125 20.2048 26.9125 20.5031 26.6142C20.8014 26.3159 20.8014 25.8322 20.5031 25.5339L17.7331 22.7639L28.1111 22.7639C28.533 22.7639 28.875 22.4219 28.875 22C28.875 21.5781 28.533 21.2361 28.1111 21.2361L17.7331 21.2361L20.5031 18.4661C20.8014 18.1678 20.8014 17.6841 20.5031 17.3858C20.2048 17.0875 19.7211 17.0875 19.4228 17.3858L15.3487 21.4598Z" fill="white"/>
</svg>
