<svg width="16" height="16" viewBox="0 0 16 16" fill="none" xmlns="http://www.w3.org/2000/svg">
<path d="M1.57958 3.40755C1.37319 3.63974 1.39411 3.99528 1.6263 4.20167C1.85849 4.40806 2.21403 4.38714 2.42042 4.15495L1.57958 3.40755ZM3.12889 2.51125L2.70847 2.13755L2.70847 2.13755L3.12889 2.51125ZM5.37111 2.51125L5.79153 2.13755L5.79153 2.13755L5.37111 2.51125ZM5.37111 13.4887L5.79153 13.8625L5.37111 13.4887ZM6.92042 12.5925C7.12681 12.3603 7.1059 12.0047 6.8737 11.7983C6.64151 11.5919 6.28597 11.6129 6.07958 11.845L6.92042 12.5925ZM3.12889 13.4887L2.70847 13.8625L3.12889 13.4887ZM2.42042 11.845C2.21403 11.6129 1.85849 11.5919 1.6263 11.7983C1.39411 12.0047 1.37319 12.3603 1.57958 12.5925L2.42042 11.845ZM2.42042 4.15495L3.5493 2.88496L2.70847 2.13755L1.57958 3.40755L2.42042 4.15495ZM4.9507 2.88496L6.07958 4.15495L6.92042 3.40755L5.79153 2.13755L4.9507 2.88496ZM5.79153 13.8625L6.92042 12.5925L6.07958 11.845L4.9507 13.115L5.79153 13.8625ZM3.5493 13.115L2.42042 11.845L1.57958 12.5925L2.70847 13.8625L3.5493 13.115ZM4.9507 13.115C4.57777 13.5346 3.92223 13.5346 3.5493 13.115L2.70847 13.8625C3.52891 14.7855 4.97109 14.7855 5.79153 13.8625L4.9507 13.115ZM3.5493 2.88496C3.92223 2.46541 4.57777 2.46541 4.9507 2.88496L5.79153 2.13755C4.97109 1.21455 3.52891 1.21455 2.70847 2.13755L3.5493 2.88496ZM11.75 5.9375C10.818 5.9375 10.0625 5.18198 10.0625 4.25H8.9375C8.9375 5.8033 10.1967 7.0625 11.75 7.0625V5.9375ZM13.4375 4.25C13.4375 5.18198 12.682 5.9375 11.75 5.9375V7.0625C13.3033 7.0625 14.5625 5.8033 14.5625 4.25H13.4375ZM11.75 2.5625C12.682 2.5625 13.4375 3.31802 13.4375 4.25H14.5625C14.5625 2.6967 13.3033 1.4375 11.75 1.4375V2.5625ZM11.75 1.4375C10.1967 1.4375 8.9375 2.6967 8.9375 4.25H10.0625C10.0625 3.31802 10.818 2.5625 11.75 2.5625V1.4375ZM11.75 13.4375C10.818 13.4375 10.0625 12.682 10.0625 11.75H8.9375C8.9375 13.3033 10.1967 14.5625 11.75 14.5625V13.4375ZM13.4375 11.75C13.4375 12.682 12.682 13.4375 11.75 13.4375V14.5625C13.3033 14.5625 14.5625 13.3033 14.5625 11.75H13.4375ZM11.75 10.0625C12.682 10.0625 13.4375 10.818 13.4375 11.75H14.5625C14.5625 10.1967 13.3033 8.9375 11.75 8.9375V10.0625ZM11.75 8.9375C10.1967 8.9375 8.9375 10.1967 8.9375 11.75H10.0625C10.0625 10.818 10.818 10.0625 11.75 10.0625V8.9375ZM3.6875 2V14H4.8125V2H3.6875Z" fill="#656565"/>
</svg>
