<svg width="24" height="24" viewBox="0 0 24 24" fill="none" xmlns="http://www.w3.org/2000/svg">
<path d="M6 2H18C20.2091 2 22 3.79086 22 6V18C22 20.2091 20.2091 22 18 22H6C3.79086 22 2 20.2091 2 18V6C2 3.79086 3.79086 2 6 2Z" fill="#9A8FFA"/>
<path fill-rule="evenodd" clip-rule="evenodd" d="M16.2409 9.14139C16.5334 9.36892 16.5861 9.79053 16.3586 10.0831L12.7734 14.6926C12.2154 15.4102 11.1656 15.5033 10.49 14.8952L8.22215 12.8541C7.94667 12.6062 7.92434 12.1819 8.17227 11.9064C8.42019 11.6309 8.84449 11.6086 9.11996 11.8565L11.3878 13.8976C11.4843 13.9845 11.6343 13.9712 11.714 13.8687L15.2992 9.2591C15.5268 8.96655 15.9484 8.91385 16.2409 9.14139Z" fill="white"/>
</svg>
